<svg id="solana_cookbook_darkmode" xmlns="http://www.w3.org/2000/svg" width="98" height="72" viewBox="0 0 98 72">
  <path d="M41,13.33,8.14,1.55A1.81,1.81,0,0,0,5.7,3.26V4H4.26V3.26A3.26,3.26,0,0,1,8.62.19L41,11.8,73.46.19a3.26,3.26,0,0,1,4.36,3.07V4H76.38V3.26a1.81,1.81,0,0,0-2.44-1.71Z" style="fill: #b17bff"/>
  <path d="M78.26,58.67,41,72V16.16L78.23,2.84a2.88,2.88,0,0,1,3.85,2.71v47.7A5.76,5.76,0,0,1,78.26,58.67Z" style="fill: #9a45ff"/>
  <path d="M3.82,58.67,41,72V16.16L3.85,2.84A2.88,2.88,0,0,0,0,5.55v47.7A5.76,5.76,0,0,0,3.82,58.67Z" style="fill: #fff"/>
  <path d="M55.06,46a1.28,1.28,0,0,1,.26-.34.85.85,0,0,1,.31-.21l17.74-6.35a.26.26,0,0,1,.21,0,.3.3,0,0,1,.14.17.52.52,0,0,1,0,.28.85.85,0,0,1-.09.31l-3.78,6.9a1.28,1.28,0,0,1-.26.34,1,1,0,0,1-.32.2L51.57,53.7a.33.33,0,0,1-.22,0,.3.3,0,0,1-.14-.18.64.64,0,0,1,0-.28,1.06,1.06,0,0,1,.1-.3Z" style="fill: #fff;fill-rule: evenodd"/>
  <path d="M73.66,34.73a.43.43,0,0,1,.09.23.67.67,0,0,1,0,.31.77.77,0,0,1-.14.27.55.55,0,0,1-.21.17L55.63,42.1a.48.48,0,0,1-.31,0,.46.46,0,0,1-.26-.15l-3.78-4.19a.54.54,0,0,1-.1-.23.77.77,0,0,1,0-.3.82.82,0,0,1,.14-.28.46.46,0,0,1,.22-.16l17.73-6.4a.59.59,0,0,1,.32,0,.43.43,0,0,1,.26.16Z" style="fill: #fff;fill-rule: evenodd"/>
  <path d="M55.06,25.72a1.28,1.28,0,0,1,.26-.34.72.72,0,0,1,.31-.2l17.74-6.36a.26.26,0,0,1,.21,0,.3.3,0,0,1,.14.17.54.54,0,0,1,0,.29.86.86,0,0,1-.09.3l-3.78,6.9a1.28,1.28,0,0,1-.26.34,1,1,0,0,1-.32.2L51.57,33.39a.33.33,0,0,1-.22,0,.3.3,0,0,1-.14-.18.64.64,0,0,1,0-.28,1.06,1.06,0,0,1,.1-.3Z" style="fill: #fff;fill-rule: evenodd"/>
  <path d="M26.68,25.76l-.25-.08h0A4.47,4.47,0,0,1,24,23.36a9.88,9.88,0,0,0-1.83-2.56,6.37,6.37,0,0,0-2.35-1.55,3.54,3.54,0,0,0-4.24,1.2h0a2,2,0,0,1-2.5.65h0L12.91,21c-3-1.07-5.42,1.25-5.42,5.19,0,3.68,2.12,7.47,4.84,8.83v5.17l14.93,5.36v-5.4c2.72.59,4.83-1.68,4.83-5.36C32.09,30.89,29.67,26.83,26.68,25.76Z" style="fill: #9a45ff"/>
  <polygon points="12.33 49.16 27.26 54.52 27.26 48.4 12.33 43.04 12.33 49.16" style="fill: #9a45ff"/>
</svg>
